<svg width="15" height="15" viewBox="0 0 15 15" fill="none" xmlns="http://www.w3.org/2000/svg">
<path d="M14.7154 4.67873L7.8599 0.108429C7.6259 -0.0355645 7.37618 -0.0368829 7.14005 0.108429L0.284589 4.67873C0.108808 4.79589 0 5.00519 0 5.21443V9.7847C0 9.99397 0.108808 10.2032 0.284619 10.3204L7.14007 14.8914C7.37407 15.0354 7.62379 15.0367 7.85993 14.8914L14.7154 10.3204C14.8912 10.2033 15 9.99397 15 9.7847V5.21443C15 5.00519 14.8912 4.79589 14.7154 4.67873V4.67873ZM8.14452 1.84945L13.1919 5.21443L10.9403 6.72113L8.14452 4.85448V1.84945ZM6.85546 1.84945V4.85448L4.05969 6.72113L1.80802 5.21443L6.85546 1.84945ZM1.28906 6.41978L2.90457 7.49958L1.28906 8.57937V6.41978ZM6.85546 13.1497L1.80802 9.78473L4.05969 8.27802L6.85546 10.1447V13.1497ZM7.49999 9.02301L5.22318 7.49958L7.49999 5.97614L9.77679 7.49958L7.49999 9.02301ZM8.14452 13.1497V10.1447L10.9403 8.27802L13.1919 9.78473L8.14452 13.1497ZM13.7109 8.57937L12.0954 7.49958L13.7109 6.41978V8.57937Z" fill="#7A7A7A"/>
</svg>
