<svg width="15" height="15" viewBox="0 0 15 15" fill="none" xmlns="http://www.w3.org/2000/svg">
<path d="M7.50167 3.65411C5.3734 3.65411 3.65672 5.37116 3.65672 7.4999C3.65672 9.62864 5.3734 11.3457 7.50167 11.3457C9.62995 11.3457 11.3466 9.62864 11.3466 7.4999C11.3466 5.37116 9.62995 3.65411 7.50167 3.65411ZM7.50167 10.0002C6.12633 10.0002 5.00195 8.8789 5.00195 7.4999C5.00195 6.1209 6.12298 4.99963 7.50167 4.99963C8.88037 4.99963 10.0014 6.1209 10.0014 7.4999C10.0014 8.8789 8.87702 10.0002 7.50167 10.0002V10.0002ZM12.4007 3.4968C12.4007 3.99551 11.9992 4.39381 11.5039 4.39381C11.0053 4.39381 10.6071 3.99216 10.6071 3.4968C10.6071 3.00143 11.0086 2.59978 11.5039 2.59978C11.9992 2.59978 12.4007 3.00143 12.4007 3.4968ZM14.9473 4.4072C14.8904 3.2056 14.616 2.14123 13.7359 1.2643C12.8592 0.387363 11.795 0.112903 10.5937 0.0526554C9.35555 -0.0176332 5.64445 -0.0176332 4.4063 0.0526554C3.20831 0.109556 2.14417 0.384016 1.26408 1.26095C0.383993 2.13788 0.112939 3.20225 0.052705 4.40385C-0.0175683 5.64227 -0.0175683 9.35418 0.052705 10.5926C0.109593 11.7942 0.383993 12.8586 1.26408 13.7355C2.14417 14.6124 3.20496 14.8869 4.4063 14.9471C5.64445 15.0174 9.35555 15.0174 10.5937 14.9471C11.795 14.8902 12.8592 14.6158 13.7359 13.7355C14.6127 12.8586 14.8871 11.7942 14.9473 10.5926C15.0176 9.35418 15.0176 5.64562 14.9473 4.4072V4.4072ZM13.3477 11.9214C13.0867 12.5774 12.5814 13.0828 11.9222 13.3472C10.935 13.7388 8.59258 13.6485 7.50167 13.6485C6.41076 13.6485 4.06497 13.7355 3.08115 13.3472C2.42526 13.0862 1.91997 12.5808 1.65561 11.9214C1.26408 10.934 1.35443 8.59105 1.35443 7.4999C1.35443 6.40875 1.26743 4.06245 1.65561 3.07841C1.91662 2.42239 2.42192 1.91698 3.08115 1.65256C4.06832 1.26095 6.41076 1.35132 7.50167 1.35132C8.59258 1.35132 10.9384 1.2643 11.9222 1.65256C12.5781 1.91363 13.0834 2.41904 13.3477 3.07841C13.7393 4.0658 13.6489 6.40875 13.6489 7.4999C13.6489 8.59105 13.7393 10.9373 13.3477 11.9214Z" fill="#7A7A7A"/>
</svg>
