<svg width="15" height="15" viewBox="0 0 15 15" fill="none" xmlns="http://www.w3.org/2000/svg">
<path d="M3.35759 14.9999H0.247768V4.98518H3.35759V14.9999ZM1.801 3.61909C0.806585 3.61909 0 2.79541 0 1.80097C7.11763e-09 1.32331 0.189748 0.86521 0.527502 0.52745C0.865256 0.18969 1.32335 -6.10352e-05 1.801 -6.10352e-05C2.27866 -6.10352e-05 2.73675 0.18969 3.07451 0.52745C3.41226 0.86521 3.60201 1.32331 3.60201 1.80097C3.60201 2.79541 2.79509 3.61909 1.801 3.61909ZM14.9967 14.9999H11.8935V10.1248C11.8935 8.96293 11.8701 7.47295 10.2767 7.47295C8.65982 7.47295 8.41205 8.73524 8.41205 10.0411V14.9999H5.30558V4.98518H8.28817V6.35128H8.3317C8.74687 5.56443 9.76105 4.73406 11.2741 4.73406C14.4214 4.73406 15 6.80664 15 9.49865V14.9999H14.9967Z" fill="#7A7A7A"/>
</svg>
