<svg width="25" height="26" viewBox="0 0 25 26" fill="none" xmlns="http://www.w3.org/2000/svg">
<path d="M24.6582 21.6161L19.79 16.7479C19.5703 16.5282 19.2725 16.4061 18.96 16.4061H18.1641C19.5117 14.6825 20.3125 12.5145 20.3125 10.1561C20.3125 4.54578 15.7666 -0.00012207 10.1562 -0.00012207C4.5459 -0.00012207 0 4.54578 0 10.1561C0 15.7665 4.5459 20.3124 10.1562 20.3124C12.5146 20.3124 14.6826 19.5116 16.4062 18.1639V18.9598C16.4062 19.2723 16.5283 19.5702 16.748 19.7899L21.6162 24.6581C22.0752 25.1171 22.8174 25.1171 23.2715 24.6581L24.6533 23.2762C25.1123 22.8173 25.1123 22.0751 24.6582 21.6161ZM10.1562 16.4061C6.7041 16.4061 3.90625 13.6132 3.90625 10.1561C3.90625 6.70398 6.69922 3.90613 10.1562 3.90613C13.6084 3.90613 16.4062 6.6991 16.4062 10.1561C16.4062 13.6083 13.6133 16.4061 10.1562 16.4061Z" fill="#B0B0B0"/>
</svg>
