<svg width="25" height="26" viewBox="0 0 25 26" fill="none" xmlns="http://www.w3.org/2000/svg">
<path d="M24.6582 21.6185L19.79 16.7504C19.5703 16.5306 19.2725 16.4086 18.96 16.4086H18.1641C19.5117 14.6849 20.3125 12.517 20.3125 10.1586C20.3125 4.54822 15.7666 0.00231934 10.1562 0.00231934C4.5459 0.00231934 0 4.54822 0 10.1586C0 15.7689 4.5459 20.3148 10.1562 20.3148C12.5146 20.3148 14.6826 19.514 16.4062 18.1664V18.9623C16.4062 19.2748 16.5283 19.5726 16.748 19.7924L21.6162 24.6605C22.0752 25.1195 22.8174 25.1195 23.2715 24.6605L24.6533 23.2787C25.1123 22.8197 25.1123 22.0775 24.6582 21.6185ZM10.1562 16.4086C6.7041 16.4086 3.90625 13.6156 3.90625 10.1586C3.90625 6.70642 6.69922 3.90857 10.1562 3.90857C13.6084 3.90857 16.4062 6.70154 16.4062 10.1586C16.4062 13.6107 13.6133 16.4086 10.1562 16.4086Z" fill="#404040"/>
</svg>
