<svg width="15" height="18" viewBox="0 0 15 18" fill="none" xmlns="http://www.w3.org/2000/svg">
<path d="M3.92727 3.8958L2.7 2.52395L1.73864 3.60457L2.95909 4.97641L3.92727 3.8958ZM2.04545 8.23358H0V9.76637H2.04545V8.23358ZM8.18182 0.607971H6.81818V2.86883H8.18182V0.607971ZM13.2614 3.60457L12.3 2.52395L11.0795 3.8958L12.0409 4.97641L13.2614 3.60457ZM11.0727 14.1041L12.2932 15.4837L13.2545 14.403L12.0273 13.0312L11.0727 14.1041ZM12.9545 8.23358V9.76637H15V8.23358H12.9545ZM7.5 4.40162C5.24318 4.40162 3.40909 6.46321 3.40909 8.99997C3.40909 11.5367 5.24318 13.5983 7.5 13.5983C9.75682 13.5983 11.5909 11.5367 11.5909 8.99997C11.5909 6.46321 9.75682 4.40162 7.5 4.40162ZM6.81818 17.392H8.18182V15.1311H6.81818V17.392ZM1.73864 14.3954L2.7 15.476L3.92045 14.0965L2.95909 13.0159L1.73864 14.3954Z" fill="#D9D9D9"/>
</svg>
