<svg width="15" height="15" viewBox="0 0 15 15" fill="none" xmlns="http://www.w3.org/2000/svg">
<path d="M13.4582 3.73819C13.4677 3.90224 13.4677 4.06633 13.4677 4.23038C13.4677 9.23424 10.3744 14.9999 4.72083 14.9999C2.97906 14.9999 1.36105 14.3787 0 13.3007C0.247472 13.3358 0.485393 13.3475 0.742386 13.3475C2.17955 13.3475 3.50254 12.7499 4.55902 11.7304C3.20749 11.6952 2.07487 10.6054 1.68464 9.10536C1.87501 9.14049 2.06535 9.16394 2.26524 9.16394C2.54125 9.16394 2.81729 9.11704 3.07425 9.03505C1.66562 8.68346 0.609114 7.16005 0.609114 5.32022V5.27336C1.01836 5.55461 1.49429 5.73039 1.9987 5.7538C1.17065 5.0741 0.628157 3.91396 0.628157 2.60146C0.628157 1.89835 0.780413 1.25383 1.04693 0.691324C2.56026 2.98819 4.83503 4.48815 7.38577 4.65224C7.33819 4.37099 7.30963 4.07805 7.30963 3.78508C7.30963 1.69913 8.6802 -6.10352e-05 10.3839 -6.10352e-05C11.269 -6.10352e-05 12.0685 0.456967 12.6301 1.19524C13.3249 1.03119 13.9911 0.714771 14.5812 0.28119C14.3528 1.16011 13.8674 1.89839 13.2297 2.3671C13.8484 2.28511 14.448 2.07413 15 1.78119C14.5813 2.53116 14.0578 3.1991 13.4582 3.73819V3.73819Z" fill="#7A7A7A"/>
</svg>
